HIERARCHY
ROOT hip
{
  OFFSET 237.589 82.1008 50.575
  CHANNELS 6 Xposition Yposition Zposition Zrotation Xrotation Yrotation
  JOINT abdomen
  {
    OFFSET 0 20.6881 -0.73152
    CHANNELS 3 Zrotation Xrotation Yrotation
    JOINT chest
    {
      OFFSET 0 11.7043 -0.48768
      CHANNELS 3 Zrotation Xrotation Yrotation
      JOINT neck
      {
        OFFSET 0 22.1894 -2.19456
        CHANNELS 3 Zrotation Xrotation Yrotation
        JOINT head
        {
          OFFSET -0.24384 7.07133 1.2192
          CHANNELS 3 Zrotation Xrotation Yrotation
          JOINT leftEye
          {
            OFFSET 4.14528 8.04674 8.04672
            CHANNELS 3 Zrotation Xrotation Yrotation
            End Site
            {
              OFFSET 1 0 0
            }
          }
          JOINT rightEye
          {
            OFFSET -3.6576 8.04674 8.04672
            CHANNELS 3 Zrotation Xrotation Yrotation
            End Site
            {
              OFFSET 1 0 0
            }
          }
        }
      }
      JOINT rCollar
      {
        OFFSET -2.68224 19.2634 -4.8768
        CHANNELS 3 Zrotation Xrotation Yrotation
        JOINT rShldr
        {
          OFFSET -8.77824 -1.95073 1.46304
          CHANNELS 3 Zrotation Xrotation Yrotation
          JOINT rForeArm
          {
            OFFSET -28.1742 -1.7115 0.48768
            CHANNELS 3 Zrotation Xrotation Yrotation
            JOINT rHand
            {
              OFFSET -22.5879 0.773209 7.07136
              CHANNELS 3 Zrotation Xrotation Yrotation
              JOINT rThumb1
              {
                OFFSET -1.2192 -0.487915 3.41376
                CHANNELS 3 Zrotation Xrotation Yrotation
                JOINT rThumb2
                {
                  OFFSET -3.37035 -0.52449 3.41376
                  CHANNELS 3 Zrotation Xrotation Yrotation
                  End Site
                  {
                    OFFSET -1.78271 -1.18214 1.43049
                  }
                }
              }
              JOINT rIndex1
              {
                OFFSET -7.75947 0.938293 5.60832
                CHANNELS 3 Zrotation Xrotation Yrotation
                JOINT rIndex2
                {
                  OFFSET -2.54057 -0.884171 1.56538
                  CHANNELS 3 Zrotation Xrotation Yrotation
                  End Site
                  {
                    OFFSET -1.62519 -0.234802 1.16502
                  }
                }
              }
              JOINT rMid1
              {
                OFFSET -8.24714 1.18213 3.41376
                CHANNELS 3 Zrotation Xrotation Yrotation
                JOINT rMid2
                {
                  OFFSET -3.10165 -0.590103 1.0647
                  CHANNELS 3 Zrotation Xrotation Yrotation
                  End Site
                  {
                    OFFSET -2.48547 -0.328903 0.83742
                  }
                }
              }
              JOINT rRing1
              {
                OFFSET -8.82822 0.546677 1.51678
                CHANNELS 3 Zrotation Xrotation Yrotation
                JOINT rRing2
                {
                  OFFSET -2.60934 -0.819778 -0.0198488
                  CHANNELS 3 Zrotation Xrotation Yrotation
                  End Site
                  {
                    OFFSET -2.33842 -0.294052 0.168128
                  }
                }
              }
              JOINT rPinky1
              {
                OFFSET -8.27202 -0.0477905 -0.4584
                CHANNELS 3 Zrotation Xrotation Yrotation
                JOINT rPinky2
                {
                  OFFSET -1.82734 -0.647385 -0.700984
                  CHANNELS 3 Zrotation Xrotation Yrotation
                  End Site
                  {
                    OFFSET -1.69225 -0.51767 -0.607171
                  }
                }
              }
            }
          }
        }
      }
      JOINT lCollar
      {
        OFFSET 2.68224 19.2634 -4.8768
        CHANNELS 3 Zrotation Xrotation Yrotation
        JOINT lShldr
        {
          OFFSET 8.77824 -1.95073 1.46304
          CHANNELS 3 Zrotation Xrotation Yrotation
          JOINT lForeArm
          {
            OFFSET 28.1742 -1.7115 0.48768
            CHANNELS 3 Zrotation Xrotation Yrotation
            JOINT lHand
            {
              OFFSET 22.5879 0.773209 7.07136
              CHANNELS 3 Zrotation Xrotation Yrotation
              JOINT lThumb1
              {
                OFFSET 1.2192 -0.487915 3.41376
                CHANNELS 3 Zrotation Xrotation Yrotation
                JOINT lThumb2
                {
                  OFFSET 3.37035 -0.52449 3.41376
                  CHANNELS 3 Zrotation Xrotation Yrotation
                  End Site
                  {
                    OFFSET 1.78271 -1.18214 1.43049
                  }
                }
              }
              JOINT lIndex1
              {
                OFFSET 7.75947 0.938293 5.60832
                CHANNELS 3 Zrotation Xrotation Yrotation
                JOINT lIndex2
                {
                  OFFSET 2.54057 -0.884171 1.56538
                  CHANNELS 3 Zrotation Xrotation Yrotation
                  End Site
                  {
                    OFFSET 1.62519 -0.234802 1.16502
                  }
                }
              }
              JOINT lMid1
              {
                OFFSET 8.24714 1.18213 3.41376
                CHANNELS 3 Zrotation Xrotation Yrotation
                JOINT lMid2
                {
                  OFFSET 3.10165 -0.590103 1.0647
                  CHANNELS 3 Zrotation Xrotation Yrotation
                  End Site
                  {
                    OFFSET 2.48547 -0.328903 0.83742
                  }
                }
              }
              JOINT lRing1
              {
                OFFSET 8.82822 0.546677 1.51678
                CHANNELS 3 Zrotation Xrotation Yrotation
                JOINT lRing2
                {
                  OFFSET 2.60934 -0.819778 -0.0198488
                  CHANNELS 3 Zrotation Xrotation Yrotation
                  End Site
                  {
                    OFFSET 2.33842 -0.294052 0.168128
                  }
                }
              }
              JOINT lPinky1
              {
                OFFSET 8.27202 -0.0477905 -0.4584
                CHANNELS 3 Zrotation Xrotation Yrotation
                JOINT lPinky2
                {
                  OFFSET 1.82734 -0.647385 -0.700984
                  CHANNELS 3 Zrotation Xrotation Yrotation
                  End Site
                  {
                    OFFSET 1.69225 -0.51767 -0.607171
                  }
                }
              }
            }
          }
        }
      }
    }
  }
  JOINT rButtock
  {
    OFFSET -8.77824 4.35084 1.2192
    CHANNELS 3 Zrotation Xrotation Yrotation
    JOINT rThigh
    {
      OFFSET 0 -1.70687 -2.19456
      CHANNELS 3 Zrotation Xrotation Yrotation
      JOINT rShin
      {
        OFFSET 0 -36.8199 0.73152
        CHANNELS 3 Zrotation Xrotation Yrotation
        JOINT rFoot
        {
          OFFSET 0.73152 -45.1104 -5.12064
          CHANNELS 3 Zrotation Xrotation Yrotation
          End Site
          {
            OFFSET -1.1221 -3.69964 12.103
          }
        }
      }
    }
  }
  JOINT lButtock
  {
    OFFSET 8.77824 4.35084 1.2192
    CHANNELS 3 Zrotation Xrotation Yrotation
    JOINT lThigh
    {
      OFFSET 0 -1.70687 -2.19456
      CHANNELS 3 Zrotation Xrotation Yrotation
      JOINT lShin
      {
        OFFSET 0 -36.8199 0.73152
        CHANNELS 3 Zrotation Xrotation Yrotation
        JOINT lFoot
        {
          OFFSET -0.73152 -45.1104 -5.12064
          CHANNELS 3 Zrotation Xrotation Yrotation
          End Site
          {
            OFFSET 1.1221 -3.69964 12.103
          }
        }
      }
    }
  }
}
MOTION
Frames:	8
Frame Time:	0.00833333
-215.543 83.185 13.3884 2.38045 0.0111361 -0.0455971 -3.13119 0.00208552 -0.0845026 -0.863225 0.0181966 -0.149331 -6.94436e-014 -1.59028e-015 -6.4605e-016 -2.08587e-013 3.18055e-015 -1.89156e-015 -0 0 0 -0 0 0 -3.49389e-014 -4.27076e-018 -1.98785e-016 -7.25804e-013 -3.16813e-016 -8.15017e-015 -1.25092e-011 3.76478e-012 -1.27222e-014 -1.43666e-010 -3.80273e-012 -1.52985e-012 -3.38807e-010 -8.01169e-014 -3.3046e-012 -5.85109e-010 -1.36764e-013 -5.69717e-012 -3.38801e-010 -7.71284e-014 -3.31414e-012 7.73091 5.47488 0.417314 -3.38807e-010 -8.04084e-014 -3.30142e-012 2.90554 0.965183 0.102902 -3.38802e-010 -8.04084e-014 -3.30142e-012 10.2786 0.731801 0.0259123 -3.38812e-010 -7.7526e-014 -3.28869e-012 2.22167 -0.733487 -0.20892 -3.49362e-014 -7.37677e-018 -4.96962e-016 -7.29338e-013 -4.34841e-016 -9.54166e-015 -1.25816e-011 -3.75246e-012 -1.59028e-014 -1.4358e-010 3.72157e-012 -1.49804e-012 -3.38776e-010 -6.5951e-014 -3.28233e-012 -5.8506e-010 -1.145e-013 -5.65582e-012 -3.3878e-010 -6.40087e-014 -3.26961e-012 -7.73091 5.47488 -0.417314 -3.38776e-010 -6.52014e-014 -3.28551e-012 -2.90554 0.965183 -0.102902 -3.38785e-010 -6.57977e-014 -3.28472e-012 -10.2786 0.731801 -0.0259123 -3.38777e-010 -6.55989e-014 -3.28869e-012 -2.22167 -0.733487 0.20892 -2.03217e-016 0 -3.88251e-019 -1.91894 -1.93503 0.0146271 -0.00849954 -2.07867 -0.0697515 -0.458501 4.00011 0.132435 2.03217e-016 0 3.88251e-019 -2.83838 -9.32624 0.322368 -0.00902395 11.3079 -0.235071 0.52751 -1.99508 -0.0183765 
-212.677 81.1348 4.8884 5.96305 -3.15188 -31.3415 -5.71736 5.05236 -1.06244 0.604071 0.310972 -0.514442 -2.60079 -0.222296 -0.100372 5.06157 -13.3834 3.52587 -0 0 0 -0 0 0 2.36773e-014 -5.41927e-013 -2.56503e-013 14.6297 22.4252 2.34771 -28.4391 -25.7554 13.101 0.351477 -13.2494 -1.68874 -5.47677e-010 1.9655e-009 4.0772e-010 -9.57664e-010 3.36217e-009 6.8717e-010 -5.47672e-010 1.9655e-009 4.07706e-010 7.73091 5.47488 0.417314 -5.47678e-010 1.9655e-009 4.07721e-010 2.90554 0.965183 0.102902 -5.47673e-010 1.9655e-009 4.07721e-010 10.2786 0.731801 0.0259123 -5.47682e-010 1.9655e-009 4.07732e-010 2.22167 -0.733487 -0.20892 2.36415e-014 -5.41918e-013 -2.5676e-013 -11.5775 22.9306 -7.84641 26.2708 -23.9561 -14.0155 -0.631373 -17.797 2.08733 -8.11471e-010 -1.18124e-009 7.93096e-010 -1.43489e-009 -2.02261e-009 1.32696e-009 -8.11475e-010 -1.18124e-009 7.93106e-010 -7.73091 5.47488 -0.417314 -8.11472e-010 -1.18124e-009 7.93095e-010 -2.90554 0.965183 -0.102902 -8.11478e-010 -1.18124e-009 7.93094e-010 -10.2786 0.731801 -0.0259123 -8.11471e-010 -1.18124e-009 7.9309e-010 -2.22167 -0.733487 0.20892 -2.03217e-016 0 -3.88251e-019 -5.63511 -6.68244 -3.93584 0.0201348 9.32822 0.117456 -1.53419 -2.96632 -5.99566 2.03217e-016 0 3.88251e-019 -1.70799 -13.8108 0.979344 0.00300682 16.9888 -0.260838 0.361876 -3.35486 -1.34996 
-212.203 81.1256 4.6416 6.84836 -3.28515 -64.5083 -8.23809 10.3986 -2.19531 2.15284 0.619983 -0.920003 -5.31369 -0.487523 -0.164312 12.3167 -27.358 7.99459 -0 0 0 -0 0 0 9.24823e-014 -1.13423e-012 -5.45356e-013 27.4242 46.1005 6.25055 -40.6672 -47.6384 37.6018 -0.225186 -27.3275 -3.81955 -7.88777e-010 4.08984e-009 8.54566e-010 -1.38679e-009 6.99376e-009 1.43984e-009 -7.88774e-010 4.08984e-009 8.54546e-010 7.73091 5.47488 0.417314 -7.88778e-010 4.08984e-009 8.54563e-010 2.90554 0.965183 0.102902 -7.88774e-010 4.08984e-009 8.54563e-010 10.2786 0.731801 0.0259123 -7.88783e-010 4.08984e-009 8.54572e-010 2.22167 -0.733487 -0.20892 9.24027e-014 -1.13421e-012 -5.45568e-013 -14.5611 45.7312 -21.4093 37.5422 -43.8011 -37.9248 0.42496 -36.5875 5.09905 -1.33203e-009 -2.50391e-009 1.68595e-009 -2.37155e-009 -4.28813e-009 2.82183e-009 -1.33203e-009 -2.50392e-009 1.68596e-009 -7.73091 5.47488 -0.417314 -1.33203e-009 -2.50391e-009 1.68595e-009 -2.90554 0.965183 -0.102902 -1.33203e-009 -2.50391e-009 1.68595e-009 -10.2786 0.731801 -0.0259123 -1.33203e-009 -2.50391e-009 1.68595e-009 -2.22167 -0.733487 0.20892 -2.03217e-016 0 -3.88251e-019 -10.3028 -11.6531 -8.26481 -0.0360867 21.4048 0.334152 -4.2847 -10.0743 -12.6368 2.03217e-016 0 3.88251e-019 -0.393776 -18.5718 1.70518 0.0219073 22.9948 -0.293089 0.117845 -4.76913 -2.77106 
-211.732 81.0766 4.41303 7.81593 0.725574 -93.7047 -10.3567 15.1341 -3.11403 3.54986 0.896349 -1.2448 -7.8047 -0.666881 -0.301134 21.3247 -39.4485 13.3753 -0 0 0 -0 0 0 1.4091e-013 -1.62577e-012 -7.69112e-013 31.3929 66.4578 16.4908 -31.1276 -53.2165 75.0094 -1.87559 -39.5885 -6.40444 -9.65416e-010 5.89667e-009 1.22977e-009 -1.70277e-009 1.00868e-008 2.0729e-009 -9.65414e-010 5.89666e-009 1.22975e-009 7.73091 5.47488 0.417314 -9.65418e-010 5.89667e-009 1.22976e-009 2.90554 0.965183 0.102902 -9.65414e-010 5.89667e-009 1.22976e-009 10.2786 0.731801 0.0259123 -9.65422e-010 5.89667e-009 1.22977e-009 2.22167 -0.733487 -0.20892 1.40797e-013 -1.62574e-012 -7.69285e-013 0.497477 60.431 -48.4391 31.2383 -48.8553 -70.5988 4.1601 -53.0086 9.94092 -1.75686e-009 -3.54358e-009 2.38585e-009 -3.13455e-009 -6.0676e-009 3.99218e-009 -1.75687e-009 -3.54359e-009 2.38586e-009 -7.73091 5.47488 -0.417314 -1.75686e-009 -3.54358e-009 2.38586e-009 -2.90554 0.965183 -0.102902 -1.75686e-009 -3.54358e-009 2.38585e-009 -10.2786 0.731801 -0.0259123 -1.75686e-009 -3.54358e-009 2.38585e-009 -2.22167 -0.733487 0.20892 -2.03217e-016 0 -3.88251e-019 -15.0834 -15.8748 -12.2296 -0.176603 32.1407 0.575289 -8.21466 -16.074 -18.9964 2.03217e-016 0 3.88251e-019 0.886752 -22.7674 2.4043 0.0456658 28.3506 -0.326513 -0.159803 -6.0623 -4.02876 
-211.229 81.1151 4.19634 10.0804 5.53902 -113.739 -11.9179 18.3662 -3.38987 4.55866 1.09129 -1.36753 -9.73944 -0.631562 -0.620138 29.9467 -47.5102 18.3947 -0 0 0 -0 0 0 1.38394e-013 -1.86541e-012 -8.30125e-013 11.4837 77.7924 45.9627 -25.739 -46.7607 97.1848 -3.8797 -47.4631 -8.81097 -9.80902e-010 6.90971e-009 1.42587e-009 -1.7359e-009 1.18334e-008 2.40694e-009 -9.80901e-010 6.9097e-009 1.42585e-009 7.73091 5.47488 0.417314 -9.80903e-010 6.90971e-009 1.42586e-009 2.90554 0.965183 0.102902 -9.809e-010 6.90971e-009 1.42586e-009 10.2786 0.731801 0.0259123 -9.80907e-010 6.90971e-009 1.42587e-009 2.22167 -0.733487 -0.20892 1.38274e-013 -1.86538e-012 -8.30274e-013 22.6282 62.2545 -77.1791 27.2132 -43.4171 -90.2974 10.3733 -63.7986 16.5946 -1.94238e-009 -3.87574e-009 2.60336e-009 -3.46342e-009 -6.63193e-009 4.35123e-009 -1.94238e-009 -3.87574e-009 2.60337e-009 -7.73091 5.47488 -0.417314 -1.94238e-009 -3.87573e-009 2.60337e-009 -2.90554 0.965183 -0.102902 -1.94238e-009 -3.87574e-009 2.60336e-009 -10.2786 0.731801 -0.0259123 -1.94238e-009 -3.87573e-009 2.60336e-009 -2.22167 -0.733487 0.20892 -2.03217e-016 0 -3.88251e-019 -18.648 -18.5235 -14.9054 -0.342301 39.5262 0.797555 -11.9428 -20.0945 -23.894 2.03217e-016 0 3.88251e-019 1.83981 -25.5604 2.94363 0.0670225 32.0809 -0.351602 -0.389281 -7.06348 -4.86521 
-210.791 81.208 3.9922 11.5042 7.65287 -121.687 -12.8857 19.4033 -2.73503 5.09015 1.20947 -1.21854 -10.8573 -0.263408 -1.19844 34.5048 -50.7441 20.2645 -0 0 0 -0 0 0 5.19191e-014 -1.71665e-012 -6.25278e-013 -8.5539 78.4376 69.7482 -25.6135 -43.109 103.922 -4.63706 -49.4209 -9.60484 -7.3082e-010 6.79979e-009 1.36255e-009 -1.30412e-009 1.1682e-008 2.30946e-009 -7.30819e-010 6.79978e-009 1.36253e-009 7.73091 5.47488 0.417314 -7.30822e-010 6.79979e-009 1.36255e-009 2.90554 0.965183 0.102902 -7.30818e-010 6.79979e-009 1.36255e-009 10.2786 0.731801 0.0259123 -7.30825e-010 6.79979e-009 1.36255e-009 2.22167 -0.733487 -0.20892 5.18357e-014 -1.71662e-012 -6.25427e-013 28.1729 59.8698 -84.4242 27.0885 -40.2224 -96.4904 14.15 -67.3885 20.445 -1.76578e-009 -3.08083e-009 2.06161e-009 -3.13374e-009 -5.25936e-009 3.43234e-009 -1.76578e-009 -3.08083e-009 2.06161e-009 -7.73091 5.47488 -0.417314 -1.76578e-009 -3.08082e-009 2.06161e-009 -2.90554 0.965183 -0.102902 -1.76578e-009 -3.08083e-009 2.06161e-009 -10.2786 0.731801 -0.0259123 -1.76577e-009 -3.08082e-009 2.0616e-009 -2.22167 -0.733487 0.20892 -2.03217e-016 0 -3.88251e-019 -19.7718 -19.2253 -15.5187 -0.422469 42.196 0.914892 -14.0028 -21.9893 -26.2965 2.03217e-016 0 3.88251e-019 2.24082 -26.5099 3.20561 0.0775788 33.5497 -0.357631 -0.50854 -7.69389 -5.19094 
-210.429 81.2588 3.83788 11.2679 7.31754 -121.041 -13.4262 18.8699 -1.40989 5.27636 1.27105 -0.874891 -11.3807 0.340675 -1.96183 35.0288 -50.7403 18.8951 -0 0 0 -0 0 0 -9.39236e-014 -1.29216e-012 -2.32342e-013 -2.73698 75.6622 63.8637 -25.1075 -44.2565 105.144 -4.04118 -47.1944 -8.84753 -2.92949e-010 5.8883e-009 1.11435e-009 -5.43543e-010 1.01754e-008 1.90436e-009 -2.92948e-010 5.8883e-009 1.11433e-009 7.73091 5.47488 0.417314 -2.92952e-010 5.88829e-009 1.11434e-009 2.90554 0.965183 0.102902 -2.92947e-010 5.8883e-009 1.11434e-009 10.2786 0.731801 0.0259123 -2.92954e-010 5.8883e-009 1.11435e-009 2.22167 -0.733487 -0.20892 -9.39404e-014 -1.29214e-012 -2.32507e-013 22.9472 57.9609 -78.1362 26.7953 -41.2466 -97.3742 12.8979 -66.1395 19.121 -1.33181e-009 -1.48738e-009 9.81509e-010 -2.33609e-009 -2.51451e-009 1.60741e-009 -1.33181e-009 -1.48738e-009 9.81519e-010 -7.73091 5.47488 -0.417314 -1.33181e-009 -1.48737e-009 9.81516e-010 -2.90554 0.965183 -0.102902 -1.33181e-009 -1.48738e-009 9.81512e-010 -10.2786 0.731801 -0.0259123 -1.3318e-009 -1.48737e-009 9.81502e-010 -2.22167 -0.733487 0.20892 -2.03217e-016 0 -3.88251e-019 -19.0373 -18.5752 -14.6106 -0.401403 41.4992 0.926061 -14.4901 -22.5683 -26.7409 2.03217e-016 0 3.88251e-019 2.21579 -26.1395 3.25307 0.0784179 33.4026 -0.348312 -0.532836 -8.05995 -5.14534 
-210.076 81.2521 3.72094 10.2751 6.16855 -116.829 -13.7556 17.8578 0.231894 5.21292 1.25051 -0.435414 -11.7041 0.986805 -2.79273 34.1267 -49.1622 16.2448 -0 0 0 -0 0 0 -2.43295e-013 -8.14567e-013 1.75e-013 6.58161 70.9444 53.2025 -24.4146 -47.3567 103.85 -3.07101 -43.1678 -7.60998 1.56113e-010 4.67486e-009 8.06068e-010 2.38304e-010 8.14772e-009 1.39683e-009 1.56114e-010 4.67486e-009 8.06055e-010 7.73091 5.47488 0.417314 1.5611e-010 4.67485e-009 8.06063e-010 2.90554 0.965183 0.102902 1.56116e-010 4.67486e-009 8.06064e-010 10.2786 0.731801 0.0259123 1.56108e-010 4.67486e-009 8.06073e-010 2.22167 -0.733487 -0.20892 -2.43242e-013 -8.14559e-013 1.74814e-013 14.8261 55 -68.0299 26.4304 -43.9527 -95.813 9.89831 -62.6704 15.9673 -8.38222e-010 2.07028e-010 -1.79641e-010 -1.43246e-009 4.02111e-010 -3.52564e-010 -8.38226e-010 2.07025e-010 -1.79629e-010 -7.73091 5.47488 -0.417314 -8.38225e-010 2.0703e-010 -1.79634e-010 -2.90554 0.965183 -0.102902 -8.38226e-010 2.07025e-010 -1.79636e-010 -10.2786 0.731801 -0.0259123 -8.38215e-010 2.0703e-010 -1.7965e-010 -2.22167 -0.733487 0.20892 -2.03217e-016 0 -3.88251e-019 -17.7152 -17.2791 -13.1427 -0.34006 39.4976 0.89148 -14.1848 -22.592 -26.2152 2.03217e-016 0 3.88251e-019 1.97671 -25.0593 3.20739 0.0747063 32.5862 -0.334164 -0.487065 -8.27089 -4.81148 
